<mxfile host="app.diagrams.net" modified="2024-03-21T16:19:42.296Z" agent="Mozilla/5.0 (Windows NT 10.0; Win64; x64) AppleWebKit/537.36 (KHTML, like Gecko) Chrome/122.0.0.0 Safari/537.36 Edg/122.0.0.0" etag="ybzOCKphymx49OOkbjU0" version="24.0.7" type="github">
  <diagram name="Page-1" id="qOZUfsSNmL7Dv5St7ASA">
    <mxGraphModel dx="1196" dy="535" grid="1" gridSize="10" guides="1" tooltips="1" connect="1" arrows="1" fold="1" page="1" pageScale="1" pageWidth="850" pageHeight="1100" math="0" shadow="0">
      <root>
        <mxCell id="0" />
        <mxCell id="1" parent="0" />
        <mxCell id="zNgJwtdY0TDyje4Qx-UO-1" value="rice disease detecting system" style="swimlane;" vertex="1" parent="1">
          <mxGeometry x="220" y="110" width="310" height="450" as="geometry" />
        </mxCell>
        <mxCell id="zNgJwtdY0TDyje4Qx-UO-6" value="take image" style="ellipse;whiteSpace=wrap;html=1;" vertex="1" parent="zNgJwtdY0TDyje4Qx-UO-1">
          <mxGeometry x="95" y="50" width="120" height="40" as="geometry" />
        </mxCell>
        <mxCell id="zNgJwtdY0TDyje4Qx-UO-11" value="manage disease" style="ellipse;whiteSpace=wrap;html=1;" vertex="1" parent="zNgJwtdY0TDyje4Qx-UO-1">
          <mxGeometry x="90" y="320" width="120" height="40" as="geometry" />
        </mxCell>
        <mxCell id="zNgJwtdY0TDyje4Qx-UO-10" value="provide guidance" style="ellipse;whiteSpace=wrap;html=1;" vertex="1" parent="zNgJwtdY0TDyje4Qx-UO-1">
          <mxGeometry x="90" y="250" width="120" height="40" as="geometry" />
        </mxCell>
        <mxCell id="zNgJwtdY0TDyje4Qx-UO-8" value="provide diagnosis" style="ellipse;whiteSpace=wrap;html=1;" vertex="1" parent="zNgJwtdY0TDyje4Qx-UO-1">
          <mxGeometry x="95" y="180" width="120" height="40" as="geometry" />
        </mxCell>
        <mxCell id="zNgJwtdY0TDyje4Qx-UO-7" value="analyze image" style="ellipse;whiteSpace=wrap;html=1;" vertex="1" parent="zNgJwtdY0TDyje4Qx-UO-1">
          <mxGeometry x="90" y="110" width="120" height="40" as="geometry" />
        </mxCell>
        <mxCell id="zNgJwtdY0TDyje4Qx-UO-2" value="farmer" style="shape=umlActor;verticalLabelPosition=bottom;verticalAlign=top;html=1;outlineConnect=0;" vertex="1" parent="1">
          <mxGeometry x="90" y="280" width="30" height="60" as="geometry" />
        </mxCell>
        <mxCell id="zNgJwtdY0TDyje4Qx-UO-3" value="system" style="shape=umlActor;verticalLabelPosition=bottom;verticalAlign=top;html=1;outlineConnect=0;" vertex="1" parent="1">
          <mxGeometry x="640" y="370" width="30" height="60" as="geometry" />
        </mxCell>
        <mxCell id="zNgJwtdY0TDyje4Qx-UO-4" value="Agricultural expert" style="shape=umlActor;verticalLabelPosition=bottom;verticalAlign=top;html=1;outlineConnect=0;" vertex="1" parent="1">
          <mxGeometry x="640" y="200" width="30" height="60" as="geometry" />
        </mxCell>
        <mxCell id="zNgJwtdY0TDyje4Qx-UO-13" value="" style="endArrow=none;html=1;rounded=0;exitX=1;exitY=0.3333333333333333;exitDx=0;exitDy=0;exitPerimeter=0;entryX=0;entryY=0.5;entryDx=0;entryDy=0;" edge="1" parent="1" source="zNgJwtdY0TDyje4Qx-UO-2" target="zNgJwtdY0TDyje4Qx-UO-6">
          <mxGeometry width="50" height="50" relative="1" as="geometry">
            <mxPoint x="110" y="260" as="sourcePoint" />
            <mxPoint x="160" y="210" as="targetPoint" />
          </mxGeometry>
        </mxCell>
        <mxCell id="zNgJwtdY0TDyje4Qx-UO-16" value="" style="endArrow=none;html=1;rounded=0;exitX=1;exitY=0.5;exitDx=0;exitDy=0;entryX=0;entryY=0.3333333333333333;entryDx=0;entryDy=0;entryPerimeter=0;" edge="1" parent="1" source="zNgJwtdY0TDyje4Qx-UO-8" target="zNgJwtdY0TDyje4Qx-UO-3">
          <mxGeometry width="50" height="50" relative="1" as="geometry">
            <mxPoint x="520" y="530" as="sourcePoint" />
            <mxPoint x="640" y="480" as="targetPoint" />
          </mxGeometry>
        </mxCell>
        <mxCell id="zNgJwtdY0TDyje4Qx-UO-17" value="" style="endArrow=none;html=1;rounded=0;exitX=1;exitY=0.5;exitDx=0;exitDy=0;entryX=0;entryY=0.3333333333333333;entryDx=0;entryDy=0;entryPerimeter=0;" edge="1" parent="1" source="zNgJwtdY0TDyje4Qx-UO-7" target="zNgJwtdY0TDyje4Qx-UO-3">
          <mxGeometry width="50" height="50" relative="1" as="geometry">
            <mxPoint x="580" y="380" as="sourcePoint" />
            <mxPoint x="630" y="330" as="targetPoint" />
          </mxGeometry>
        </mxCell>
        <mxCell id="zNgJwtdY0TDyje4Qx-UO-18" value="" style="endArrow=none;html=1;rounded=0;exitX=1;exitY=0.5;exitDx=0;exitDy=0;entryX=0;entryY=0.3333333333333333;entryDx=0;entryDy=0;entryPerimeter=0;" edge="1" parent="1" source="zNgJwtdY0TDyje4Qx-UO-6" target="zNgJwtdY0TDyje4Qx-UO-4">
          <mxGeometry width="50" height="50" relative="1" as="geometry">
            <mxPoint x="570" y="260" as="sourcePoint" />
            <mxPoint x="620" y="210" as="targetPoint" />
          </mxGeometry>
        </mxCell>
        <mxCell id="zNgJwtdY0TDyje4Qx-UO-15" value="" style="endArrow=none;html=1;rounded=0;exitX=1;exitY=0.5;exitDx=0;exitDy=0;entryX=0;entryY=0.3333333333333333;entryDx=0;entryDy=0;entryPerimeter=0;" edge="1" parent="1" source="zNgJwtdY0TDyje4Qx-UO-10" target="zNgJwtdY0TDyje4Qx-UO-3">
          <mxGeometry width="50" height="50" relative="1" as="geometry">
            <mxPoint x="500" y="490" as="sourcePoint" />
            <mxPoint x="550" y="440" as="targetPoint" />
          </mxGeometry>
        </mxCell>
        <mxCell id="zNgJwtdY0TDyje4Qx-UO-14" value="" style="endArrow=none;html=1;rounded=0;exitX=1;exitY=0.5;exitDx=0;exitDy=0;entryX=0;entryY=0.3333333333333333;entryDx=0;entryDy=0;entryPerimeter=0;" edge="1" parent="1" source="zNgJwtdY0TDyje4Qx-UO-11" target="zNgJwtdY0TDyje4Qx-UO-3">
          <mxGeometry width="50" height="50" relative="1" as="geometry">
            <mxPoint x="510" y="540" as="sourcePoint" />
            <mxPoint x="560" y="490" as="targetPoint" />
          </mxGeometry>
        </mxCell>
      </root>
    </mxGraphModel>
  </diagram>
</mxfile>
